<svg xmlns="http://www.w3.org/2000/svg" xmlns:xlink="http://www.w3.org/1999/xlink" width="104.199" height="32.837" viewBox="0 0 104.199 32.837">
  <defs>
    <linearGradient id="linear-gradient" y1="0.5" x2="1" y2="0.5" gradientUnits="objectBoundingBox">
      <stop offset="0" stop-color="#00c797"/>
      <stop offset="1" stop-color="#7271aa"/>
    </linearGradient>
    <linearGradient id="linear-gradient-2" x1="0" y1="0.5" x2="1" y2="0.5" xlink:href="#linear-gradient"/>
    <linearGradient id="linear-gradient-3" x1="0" y1="0.5" x2="1" y2="0.5" xlink:href="#linear-gradient"/>
    <linearGradient id="linear-gradient-4" x1="0" y1="0.5" x2="1" y2="0.5" xlink:href="#linear-gradient"/>
  </defs>
  <g id="glueple_svg" data-name="glueple svg" transform="translate(-59.58 -83.79)">
    <path id="Path_1" data-name="Path 1" d="M72.346,177.723,72.213,180h-.1a5.4,5.4,0,0,0-2.034-1.843,6.963,6.963,0,0,0-8.508,1.725,9.778,9.778,0,0,0-1.992,6.309v.531a9.778,9.778,0,0,0,1.992,6.309,6.456,6.456,0,0,0,5.312,2.49A6.8,6.8,0,0,0,70,194.862a5.541,5.541,0,0,0,2.05-1.735v1.727a4.459,4.459,0,0,1-4.83,4.88,6.663,6.663,0,0,1-2.988-.655,6.454,6.454,0,0,1-2.059-1.5L60.228,199.9a10.429,10.429,0,0,0,3.087,1.81,10.848,10.848,0,0,0,3.984.714,8.139,8.139,0,0,0,5.661-1.959,7.163,7.163,0,0,0,2.175-5.611V177.723Zm-.3,12.285a5.473,5.473,0,0,1-1.677,2.075,4.428,4.428,0,0,1-2.822.913,4.026,4.026,0,0,1-3.653-1.809,8.1,8.1,0,0,1-1.162-4.466v-.531a8.1,8.1,0,0,1,1.162-4.466,4.026,4.026,0,0,1,3.653-1.809,4.43,4.43,0,0,1,2.822.913,5.469,5.469,0,0,1,1.677,2.075v7.105Z" transform="translate(0 -85.798)" fill="#00c797"/>
    <path id="Path_2" data-name="Path 2" d="M298.53,85.32v25.5h3.088V85.32Z" transform="translate(-219.033 -1.402)" fill="#00c797"/>
    <path id="Path_3" data-name="Path 3" d="M622.852,184.415a9.652,9.652,0,0,0-1.925-6.324,6.707,6.707,0,0,0-5.495-2.341,7.206,7.206,0,0,0-5.736,2.506,9.521,9.521,0,0,0-2.166,6.457v.532A9.521,9.521,0,0,0,609.7,191.7a8.93,8.93,0,0,0,10.458,1.428,8.256,8.256,0,0,0,2.566-2.324l-1.992-1.577a6.86,6.86,0,0,1-1.942,1.727,5.365,5.365,0,0,1-2.856.73,4.473,4.473,0,0,1-3.968-1.868,7.692,7.692,0,0,1-1.269-4.142h12.16v-1.262Zm-3.1-1.2h-8.963a7.527,7.527,0,0,1,1.11-3.078,4.077,4.077,0,0,1,3.669-1.868,3.767,3.767,0,0,1,3.1,1.329,4.942,4.942,0,0,1,1.079,3.221v.4Z" transform="translate(-502.277 -84.295)" fill="#00c797"/>
    <path id="Path_4" data-name="Path 4" d="M840.123,180.23a6.965,6.965,0,0,0-8.508-1.726,5.4,5.4,0,0,0-2.034,1.843h-.1l-.133-2.274H826.56v24.659h3.088v-9.254a5.53,5.53,0,0,0,2.05,1.735,6.792,6.792,0,0,0,3.112.655,6.457,6.457,0,0,0,5.312-2.49,9.775,9.775,0,0,0,1.992-6.308v-.532a9.777,9.777,0,0,0-1.992-6.308Zm-1.162,6.839a8.1,8.1,0,0,1-1.163,4.465,4.023,4.023,0,0,1-3.652,1.81,4.426,4.426,0,0,1-2.822-.914,5.452,5.452,0,0,1-1.677-2.075V183.25a5.457,5.457,0,0,1,1.677-2.075,4.429,4.429,0,0,1,2.822-.914,4.023,4.023,0,0,1,3.652,1.81,8.1,8.1,0,0,1,1.163,4.465v.532Z" transform="translate(-703.05 -86.119)" fill="#00c797"/>
    <path id="Path_5" data-name="Path 5" d="M1050.98,85.32v25.5h3.087V85.32Z" transform="translate(-908.764 -1.402)" fill="#00c797"/>
    <path id="Path_6" data-name="Path 6" d="M1141.153,184.415a9.655,9.655,0,0,0-1.926-6.324,6.709,6.709,0,0,0-5.495-2.341,7.206,7.206,0,0,0-5.735,2.506,9.521,9.521,0,0,0-2.167,6.457v.532A9.521,9.521,0,0,0,1128,191.7a8.93,8.93,0,0,0,10.458,1.428,8.251,8.251,0,0,0,2.565-2.324l-1.992-1.577a6.861,6.861,0,0,1-1.942,1.727,5.362,5.362,0,0,1-2.855.73,4.475,4.475,0,0,1-3.969-1.868,7.7,7.7,0,0,1-1.27-4.142h12.16v-1.262Zm-3.1-1.2h-8.963a7.517,7.517,0,0,1,1.111-3.078,4.075,4.075,0,0,1,3.668-1.868,3.77,3.77,0,0,1,3.1,1.329,4.947,4.947,0,0,1,1.078,3.221v.4Z" transform="translate(-977.375 -84.295)" fill="#00c797"/>
    <path id="Path_7" data-name="Path 7" d="M431.792,225.1l-.182.473-2.139,5.576A3.142,3.142,0,0,1,423.6,228.9l2.139-5.576.182-.473.238.092a.253.253,0,0,1,.143.329l-2.229,5.81A2.635,2.635,0,0,0,429,230.969l2.229-5.811a.252.252,0,0,1,.326-.148l.238.092Z" transform="translate(-333.492 -127.469)" fill="#262656"/>
    <path id="Path_8" data-name="Path 8" d="M394.22,212.825l-2.229,5.811a6.868,6.868,0,0,1-12.825-4.919l2.229-5.811a.253.253,0,0,1,.33-.147l.234.09-.182.473L379.64,213.9a6.362,6.362,0,0,0,11.879,4.557l2.139-5.576.182-.473.234.09a.253.253,0,0,1,.147.33Z" transform="translate(-292.533 -113.62)" fill="#262656"/>
    <g id="g2346" transform="translate(88.846 94.121)">
      <g id="path2348">
        <path id="Path_9" data-name="Path 9" d="M414.657,209.412a.25.25,0,0,1-.324.143l-.238-.092-3.007-1.153-.234-.09a.253.253,0,1,1,.182-.473l.234.09,3.007,1.153.238.092A.252.252,0,0,1,414.657,209.412Z" transform="translate(-410.688 -207.731)" fill="#262656"/>
      </g>
    </g>
    <g id="g2350" transform="translate(97.718 97.524)">
      <g id="path2352" transform="translate(0)">
        <path id="Path_10" data-name="Path 10" d="M521.1,250.243a.252.252,0,0,1-.328.143l-.234-.09-3.007-1.153-.238-.092a.253.253,0,0,1,.181-.473l.238.092,3.006,1.153.234.09a.253.253,0,0,1,.147.33Z" transform="translate(-517.133 -248.562)" fill="#262656"/>
      </g>
    </g>
    <path id="Path_11" data-name="Path 11" d="M421,165.152l-.484,1.264-.484,1.262a.255.255,0,0,1-.326.148l-.238-.092-3.007-1.153-.234-.09a.249.249,0,0,1-.1-.076.255.255,0,0,1-.042-.253l.969-2.526a.252.252,0,0,1,.328-.143l3.479,1.335a.251.251,0,0,1,.145.324Z" transform="translate(-326.767 -73.045)" fill="#00c797"/>
    <path id="Path_12" data-name="Path 12" d="M527.465,205.872a.234.234,0,0,1-.017.088l-.969,2.526a.256.256,0,0,1-.33.147l-.234-.09-3.007-1.153-.238-.092a.255.255,0,0,1-.143-.328l.969-2.526a.253.253,0,0,1,.325-.145l3.479,1.335a.254.254,0,0,1,.165.238Z" transform="translate(-424.344 -110.449)" fill="#262656"/>
    <path id="Path_13" data-name="Path 13" d="M444.518,110.341a2.325,2.325,0,1,0,.68,1.643,2.307,2.307,0,0,0-.68-1.643Zm-1.644,3.7a2.048,2.048,0,0,1-1.53-.686,1.636,1.636,0,0,1,1.53-1.058.818.818,0,1,1,.817-.819.817.817,0,0,1-.817.819,1.634,1.634,0,0,1,1.53,1.058A2.045,2.045,0,0,1,442.875,114.037Z" transform="translate(-349.215 -23.714)" fill="url(#linear-gradient)"/>
    <path id="Path_14" data-name="Path 14" d="M548.278,150.271a2.325,2.325,0,1,0-3.287,3.287c.045.045.092.088.14.128a2.325,2.325,0,0,0,3.148-3.416Zm-.831,3.528a2.022,2.022,0,0,1-.814.169,2.049,2.049,0,0,1-1.034-.28,2.082,2.082,0,0,1-.5-.406,1.637,1.637,0,0,1,1.53-1.058.817.817,0,1,1,.817-.817.817.817,0,0,1-.817.817,1.637,1.637,0,0,1,1.53,1.058A2.043,2.043,0,0,1,547.447,153.8Z" transform="translate(-444.326 -60.315)" fill="url(#linear-gradient-2)"/>
    <path id="Path_15" data-name="Path 15" d="M526.429,84.354a1.926,1.926,0,1,0,.565,1.364A1.915,1.915,0,0,0,526.429,84.354Zm-1.362,3.064a1.7,1.7,0,0,1-1.269-.568,1.357,1.357,0,0,1,1.269-.877.678.678,0,1,1,.678-.678.677.677,0,0,1-.678.678,1.356,1.356,0,0,1,1.268.877A1.7,1.7,0,0,1,525.067,87.418Z" transform="translate(-424.921)" fill="url(#linear-gradient-3)"/>
    <path id="Path_16" data-name="Path 16" d="M416.874,198.826a.249.249,0,0,1-.1-.076h4.394l-.484,1.262a.255.255,0,0,1-.326.148l-.238-.092-3.007-1.153Z" transform="translate(-327.417 -105.378)" fill="#00c797"/>
    <path id="Path_17" data-name="Path 17" d="M394.22,212.825l-2.229,5.811a6.868,6.868,0,0,1-12.825-4.919l2.229-5.811a.253.253,0,0,1,.33-.147l.234.09L384.967,209l.238.092a.253.253,0,0,1,.143.329l-2.229,5.81a2.635,2.635,0,0,0,4.921,1.888l2.229-5.811a.252.252,0,0,1,.326-.148l.238.092,3.007,1.153.234.09a.253.253,0,0,1,.147.33Z" transform="translate(-292.533 -113.62)" fill="url(#linear-gradient-4)"/>
    <path id="Path_18" data-name="Path 18" d="M527.465,205.872a.234.234,0,0,1-.017.088l-.969,2.526a.256.256,0,0,1-.33.147l-.234-.09-3.007-1.153-.238-.092a.255.255,0,0,1-.143-.328l.969-2.526a.253.253,0,0,1,.325-.145l3.479,1.335a.254.254,0,0,1,.165.238Z" transform="translate(-424.344 -110.449)" fill="#00c797"/>
  </g>
</svg>
