<svg id="Group_40066" data-name="Group 40066" xmlns="http://www.w3.org/2000/svg" width="23.573" height="23.573" viewBox="0 0 23.573 23.573">
  <path id="Path_17613" data-name="Path 17613" d="M9.548,3H6.929A3.939,3.939,0,0,0,3,6.929V9.548a3.939,3.939,0,0,0,3.929,3.929H9.548a3.939,3.939,0,0,0,3.929-3.929V6.929A3.939,3.939,0,0,0,9.548,3Zm13.1,0H20.025A3.939,3.939,0,0,0,16.1,6.929V9.548a3.939,3.939,0,0,0,3.929,3.929h2.619a3.939,3.939,0,0,0,3.929-3.929V6.929A3.939,3.939,0,0,0,22.644,3Zm0,13.1H20.025A3.939,3.939,0,0,0,16.1,20.025v2.619a3.939,3.939,0,0,0,3.929,3.929h2.619a3.939,3.939,0,0,0,3.929-3.929V20.025A3.939,3.939,0,0,0,22.644,16.1Z" transform="translate(-3 -3)" fill="#fff"/>
  <g id="Group_27335" data-name="Group 27335" transform="translate(0 13.131)" opacity="0.8">
    <path id="Path_17612" data-name="Path 17612" d="M5.221,0A5.221,5.221,0,1,1,0,5.221,5.221,5.221,0,0,1,5.221,0Z" transform="translate(0 0)" fill="#fff" opacity="0.4"/>
  </g>
</svg>
