<svg xmlns="http://www.w3.org/2000/svg" width="75.006" height="72.603" viewBox="0 0 75.006 72.603">
  <g id="Group_40068" data-name="Group 40068" transform="translate(0.428 -4.909)">
    <path id="Path_17532" data-name="Path 17532" d="M60.944,469.2a2.292,2.292,0,0,1,.691,1.652,2.351,2.351,0,0,1-2.344,2.344H49.916a2.344,2.344,0,1,1,0-4.688h9.376A2.292,2.292,0,0,1,60.944,469.2Z" transform="translate(-40.968 -395.685)" fill="#d8ecf1"/>
    <path id="Path_17533" data-name="Path 17533" d="M61.636,470.853a2.351,2.351,0,0,1-2.344,2.344H49.916a2.344,2.344,0,1,1,0-4.688h1.172a2.351,2.351,0,0,0,2.344,2.344Z" transform="translate(-40.968 -395.685)" fill="#8fcbf7"/>
    <path id="Path_17534" data-name="Path 17534" d="M386.12,404.509a2.351,2.351,0,0,1,2.344,2.344,2.361,2.361,0,0,1-2.344,2.344h-8.2a2.344,2.344,0,0,1,0-4.688Z" transform="translate(-320.918 -341.06)" fill="#d8ecf1"/>
    <path id="Path_17535" data-name="Path 17535" d="M388.464,406.853a2.361,2.361,0,0,1-2.344,2.344h-8.2a2.344,2.344,0,0,1,0-4.688h1.172a2.351,2.351,0,0,0,2.344,2.344Z" transform="translate(-320.918 -341.06)" fill="#8fcbf7"/>
    <path id="Path_17536" data-name="Path 17536" d="M127.623,413.885a2.351,2.351,0,0,1,2.344,2.344,2.361,2.361,0,0,1-2.344,2.344H95.979a2.344,2.344,0,0,1,0-4.688H99.5a2.351,2.351,0,0,0,2.344-2.344A2.361,2.361,0,0,0,99.5,409.2H81.916a2.351,2.351,0,0,1-2.344-2.344,2.361,2.361,0,0,1,2.344-2.344H115.9a2.351,2.351,0,0,1,2.344,2.344A2.361,2.361,0,0,1,115.9,409.2h-3.516a2.351,2.351,0,0,0-2.344,2.344,2.361,2.361,0,0,0,2.344,2.344Z" transform="translate(-68.28 -341.06)" fill="#d8ecf1"/>
    <path id="Path_17537" data-name="Path 17537" d="M99.5,409.2H81.916a2.351,2.351,0,0,1-2.344-2.344,2.361,2.361,0,0,1,2.344-2.344H84.26a2.351,2.351,0,0,0,2.344,2.344h17.579a2.361,2.361,0,0,1,2.344,2.344,2.351,2.351,0,0,1-2.344,2.344h-2.344A2.361,2.361,0,0,0,99.5,409.2Zm30.471,7.032a2.361,2.361,0,0,1-2.344,2.344H95.979a2.344,2.344,0,0,1,0-4.688h2.344a2.351,2.351,0,0,0,2.344,2.344Z" transform="translate(-68.28 -341.06)" fill="#8fcbf7"/>
    <path id="Path_17538" data-name="Path 17538" d="M168.468,75.757a18,18,0,0,1-6.657,14H139.029a18.05,18.05,0,1,1,29.44-14Z" transform="translate(-113.345 -45.065)" fill="#f5dd09"/>
    <path id="Path_17539" data-name="Path 17539" d="M128.56,19.09c-1.289,5.157,2.578,15.47,2.578,15.47A28.189,28.189,0,0,0,124.857,44.7h-8.11a18.048,18.048,0,1,0-22.783,0h-8.11A28.189,28.189,0,0,0,79.572,34.56s3.867-10.313,2.578-15.47c0,0,7.735-5.157,9.024-10.313,0,0,9.634-.832,14.181-3.867,4.547,3.035,14.181,3.867,14.181,3.867,1.289,5.157,9.024,10.313,9.024,10.313Z" transform="translate(-68.28)" fill="#fab03c"/>
    <path id="Path_17540" data-name="Path 17540" d="M146.9,61.685a37,37,0,0,1,3.345-3.917,18.047,18.047,0,0,0-11.22,32.045h9.839C139.972,82.9,140.672,70,146.9,61.685Z" transform="translate(-113.345 -45.115)" fill="#f8b804"/>
    <path id="Path_17541" data-name="Path 17541" d="M113.05,7.751a24.069,24.069,0,0,1-7.7-2.842c-4.547,3.035-14.181,3.867-14.181,3.867C89.885,13.933,82.15,19.09,82.15,19.09c1.289,5.157-2.578,15.47-2.578,15.47A28.189,28.189,0,0,1,85.854,44.7h8.11a18.047,18.047,0,0,1,11.22-32.045,18.093,18.093,0,0,1,7.866-4.9Z" transform="translate(-68.28 0)" fill="#fd8f3e"/>
    <path id="Path_17542" data-name="Path 17542" d="M15.979,275.541H4.26a1.172,1.172,0,0,1,0-2.344h11.72a1.172,1.172,0,0,1,0,2.344Zm53.91,0H24.183a1.172,1.172,0,0,1,0-2.344H69.89a1.172,1.172,0,1,1,0,2.344Zm-21.1,4.688H7.776a1.172,1.172,0,1,1,0-2.344H48.794a1.172,1.172,0,1,1,0,2.344Zm17.579,0H54.654a1.172,1.172,0,1,1,0-2.344h11.72a1.172,1.172,0,1,1,0,2.344Zm-37.5,4.688H10.12a1.172,1.172,0,0,1,0-2.344H28.871a1.172,1.172,0,0,1,0,2.344Zm35.159,0h-29.3a1.172,1.172,0,0,1,0-2.344h29.3a1.172,1.172,0,1,1,0,2.344Zm9.376-14.064H.744a1.172,1.172,0,0,1,0-2.344H73.406a1.172,1.172,0,1,1,0,2.344Z" transform="translate(0 -224.984)" fill="#f3f354"/>
  </g>
</svg>
