<svg xmlns="http://www.w3.org/2000/svg" width="20.047" height="24.056" viewBox="0 0 20.047 24.056">
  <g id="_008-bell" data-name="008-bell" transform="translate(-8.057 -6.264)">
    <path id="Path_33" data-name="Path 33" d="M168.756,144.951a6.715,6.715,0,0,1-2.384-5.137V137.02a7.021,7.021,0,0,0-6.014-6.936V129a1,1,0,0,0-2.006,0v1.083a7.02,7.02,0,0,0-6.014,6.936v2.795a6.724,6.724,0,0,1-2.394,5.145,1.754,1.754,0,0,0,1.141,3.086h16.538a1.755,1.755,0,0,0,1.132-3.1Zm0,0" transform="translate(-141.275 -121.735)" fill="#fff"/>
    <path id="Path_34" data-name="Path 34" d="M220.484,355.007A3.764,3.764,0,0,0,224.166,352H216.8A3.767,3.767,0,0,0,220.484,355.007Zm0,0" transform="translate(-202.403 -324.687)" fill="#fff" opacity="0.4"/>
  </g>
</svg>
