<svg xmlns="http://www.w3.org/2000/svg" width="55" height="55" viewBox="0 0 55 55">
  <g id="Group_27384" data-name="Group 27384" transform="translate(-239 -657)">
    <rect id="Rectangle_4628" data-name="Rectangle 4628" width="55" height="55" rx="27.5" transform="translate(239 657)" fill="#00c797" opacity="0.1"/>
    <g id="Group_27580" data-name="Group 27580" transform="translate(255.938 673.663)">
      <path id="Path_17811" data-name="Path 17811" d="M16.539,11.187a5.94,5.94,0,0,1,3.587,1.2V8H1V20.75H11.765a5.963,5.963,0,0,1,1.8-8.765H6.578V10.391h7.969v1.144a5.937,5.937,0,0,1,1.992-.348Z" transform="translate(-0.584 -0.658)" fill="#00c797" opacity="0.4"/>
      <path id="Path_17812" data-name="Path 17812" d="M19.175,13a5.175,5.175,0,1,0,5.175,5.175A5.175,5.175,0,0,0,19.175,13ZM18.05,20.715l-2.25-2.25.563-.563L18.05,19.59l3.944-3.943.563.563Z" transform="translate(-3.225 -1.674)" fill="#00c797"/>
      <rect id="Rectangle_4692" data-name="Rectangle 4692" width="20.25" height="6.75" rx="2" transform="translate(0 0)" fill="#00c797"/>
    </g>
  </g>
</svg>
