<svg xmlns="http://www.w3.org/2000/svg" width="55" height="55" viewBox="0 0 55 55">
  <g id="Group_39987" data-name="Group 39987" transform="translate(0.265 0.345)">
    <rect id="Rectangle_4624" data-name="Rectangle 4624" width="55" height="55" rx="27.5" transform="translate(-0.265 -0.345)" fill="#00c797" opacity="0.1"/>
    <g id="Group_27378" data-name="Group 27378" transform="translate(15.738 18.695)">
      <path id="Path_17643" data-name="Path 17643" d="M15.029,10.324V8.084a.8.8,0,0,1-.8-.781V4.636A.64.64,0,0,0,13.57,4H6.2A4.151,4.151,0,0,0,2,8.084v2.7a.769.769,0,0,0,.236.554.82.82,0,0,0,.568.227,1.348,1.348,0,0,1,1.437,1.3,1.414,1.414,0,0,1-1.426,1.4A.767.767,0,0,0,2,15v2.668a4.14,4.14,0,0,0,4.192,4.074H13.57a.642.642,0,0,0,.654-.635V18.855a.793.793,0,0,1,.8-.782v-2.02a.8.8,0,0,1-.8-.781V11.105a.8.8,0,0,1,.8-.782Z" transform="translate(-2 -4)" fill="#00c797" opacity="0.4"/>
      <path id="Path_17644" data-name="Path 17644" d="M20.657,12.865a1.421,1.421,0,0,0,1.426,1.4.766.766,0,0,1,.815.728v2.678a4.133,4.133,0,0,1-4.192,4.074h-3.5a.649.649,0,0,1-.654-.636V18.854a.785.785,0,0,0-.8-.781v-2.02a.792.792,0,0,0,.8-.781V11.105a.792.792,0,0,0-.8-.782V8.084a.792.792,0,0,0,.8-.782V4.636A.648.648,0,0,1,15.209,4h3.5A4.134,4.134,0,0,1,22.9,8.073V10.7a.768.768,0,0,1-.236.552.815.815,0,0,1-.568.228,1.416,1.416,0,0,0-1.437,1.386Z" transform="translate(-0.721 -4)" fill="#00c797"/>
    </g>
  </g>
</svg>
