<svg xmlns="http://www.w3.org/2000/svg" width="55" height="55" viewBox="0 0 55 55">
  <g id="Group_40024" data-name="Group 40024" transform="translate(-235.634 -1291.634)">
    <rect id="Rectangle_4624" data-name="Rectangle 4624" width="55" height="55" rx="27.5" transform="translate(235.634 1291.634)" fill="#00c797" opacity="0.1"/>
    <g id="XMLID_40_" transform="translate(254.395 1304.583)">
      <path id="XMLID_3121_" d="M24.939,8.144a.423.423,0,0,1-.434-.434V1.267H18.867V7.71a.434.434,0,1,1-.867,0V.834A.423.423,0,0,1,18.434.4h6.505a.423.423,0,0,1,.434.434V7.71A.423.423,0,0,1,24.939,8.144Z" transform="translate(-13.539 -0.09)" fill="#89e5ce"/>
      <path id="XMLID_1592_" d="M25.722,11.629a20.635,20.635,0,0,0-9.912,0,.466.466,0,0,0-.31.434v.743a.423.423,0,0,0,.434.434H25.66a.423.423,0,0,0,.434-.434v-.743a.655.655,0,0,0-.372-.434Z" transform="translate(-12.588 -4.133)" fill="#89e5ce"/>
      <path id="XMLID_1583_" d="M25.854,13.1H12.1a1.309,1.309,0,0,0-1.3,1.3V31.872a1.309,1.309,0,0,0,1.3,1.3H25.916a1.309,1.309,0,0,0,1.3-1.3V14.339A1.355,1.355,0,0,0,25.854,13.1Z" transform="translate(-10.8 -4.922)" fill="#00c797"/>
      <path id="XMLID_1582_" d="M25.247,28.6H14.839A1.243,1.243,0,0,0,13.6,29.839v5.885a1.243,1.243,0,0,0,1.239,1.239H25.247a1.243,1.243,0,0,0,1.239-1.239V29.839A1.243,1.243,0,0,0,25.247,28.6Z" transform="translate(-11.865 -10.82)" fill="#89e5ce"/>
      <path id="XMLID_1581_" d="M24.786-.1H18.343A.716.716,0,0,0,17.6.643V2.564a.743.743,0,1,0,1.487,0V1.325h4.956V2.564a.743.743,0,0,0,1.487,0V.643A.753.753,0,0,0,24.786-.1Z" transform="translate(-13.387 0.1)" fill="#00c797"/>
    </g>
  </g>
</svg>
