<svg xmlns="http://www.w3.org/2000/svg" xmlns:xlink="http://www.w3.org/1999/xlink" width="152" height="18" viewBox="0 0 152 18">
  <defs>
    <linearGradient id="linear-gradient" y1="0.5" x2="1" y2="0.5" gradientUnits="objectBoundingBox">
      <stop offset="0" stop-color="#fd0180"/>
      <stop offset="1" stop-color="#fd8501"/>
    </linearGradient>
  </defs>
  <g id="Group_25401" data-name="Group 25401" transform="translate(-180 -885.374)">
    <text id="Powered_By" data-name="Powered By" transform="translate(223 899.374)" fill="#1a1a1a" font-size="14" font-family="Montserrat-Medium, Montserrat" font-weight="500"><tspan x="-42" y="0">Powered By</tspan></text>
    <g id="QD_Service" data-name="QD Service" transform="translate(270.8 887.927)">
      <g id="Group_4" data-name="Group 4" transform="translate(0 0.49)">
        <g id="Group_3" data-name="Group 3" transform="translate(0 0)">
          <path id="Path_167" data-name="Path 167" d="M12.445,77.851c-.372.465-.654.879-1.018,1.29l-.894-.678a.783.783,0,0,0-.277-.156.83.83,0,0,0-.558.157A4.924,4.924,0,0,1,2.79,75.947c.519,0,1.034-.007,1.554-.007l.173,0,.085.133a3.412,3.412,0,0,0,4.748.795,5.408,5.408,0,0,1,.478-.339A1.316,1.316,0,0,1,10,76.446a.793.793,0,0,1,.463-.041,1.194,1.194,0,0,1,.391.226.018.018,0,0,1,.009.009Z" transform="translate(-2.476 -67.449)" fill="url(#linear-gradient)"/>
          <path id="Path_168" data-name="Path 168" d="M9.562,8.722q-.061.219-.142.436c0,.011-.007.025-.011.036a.106.106,0,0,1-.014.034,1.105,1.105,0,0,1-.1.211,3.338,3.338,0,0,0-1.389-.77l.036-.07a3.4,3.4,0,0,0,.3-1.492c.012-.575.009-1.148-.021-1.722a.188.188,0,0,0,0-.036,4.005,4.005,0,0,0-.258-1.375A3.289,3.289,0,0,0,7.087,2.8l-.059-.047a3.251,3.251,0,0,0-2.034-.716h-.2A3.248,3.248,0,0,0,1.552,5.286v2a3.723,3.723,0,0,0,.49,1.7l-1.727,0A4.73,4.73,0,0,1,0,7.282v-2A4.8,4.8,0,0,1,4.8.49H5A4.824,4.824,0,0,1,8.555,2.07,4.748,4.748,0,0,1,9.767,4.879c.016.174.025.35.029.526A11.161,11.161,0,0,1,9.562,8.722Z" transform="translate(0 -0.49)" fill="#004182"/>
        </g>
        <path id="Path_169" data-name="Path 169" d="M111.685,8.466A4.226,4.226,0,0,0,109.9,6.659a5.788,5.788,0,0,0-2.741-.617H104.47V16.424h2.691a5.076,5.076,0,0,0,3.769-1.378,5.2,5.2,0,0,0,1.361-3.8A5.991,5.991,0,0,0,111.685,8.466Zm-1.94,5.6a3.608,3.608,0,0,1-2.615.908h-1.1V7.512h1.1a3.606,3.606,0,0,1,2.615.908,3.813,3.813,0,0,1,.934,2.829,3.78,3.78,0,0,1-.934,2.815Z" transform="translate(-92.713 -5.417)" fill="#004182"/>
        <path id="Path_170" data-name="Path 170" d="M182.288,36.547a2.265,2.265,0,0,1-.825.813,2.641,2.641,0,0,1-1.312.292A1.83,1.83,0,0,1,178.657,37a2.629,2.629,0,0,1-.592-1.343h5.547l.023-.245c.01-.107.016-.258.016-.448A3.875,3.875,0,0,0,183.2,33.1a3.475,3.475,0,0,0-1.263-1.331h0a3.412,3.412,0,0,0-1.8-.491,3.553,3.553,0,0,0-1.879.505,3.484,3.484,0,0,0-1.292,1.4,4.3,4.3,0,0,0-.46,2,4.259,4.259,0,0,0,.468,2,3.524,3.524,0,0,0,1.307,1.4,3.626,3.626,0,0,0,1.9.5,4.1,4.1,0,0,0,1.991-.463,3.7,3.7,0,0,0,1.364-1.277l.142-.224-1.243-.828Zm-4.125-2.241a2.429,2.429,0,0,1,.614-1.057,1.821,1.821,0,0,1,1.357-.524,1.889,1.889,0,0,1,1.356.458,2.121,2.121,0,0,1,.575,1.123Z" transform="translate(-156.641 -27.815)" fill="#004182"/>
        <path id="Path_171" data-name="Path 171" d="M248.808,32.107a3.117,3.117,0,0,0-2.128-.808,3.553,3.553,0,0,0-1.879.505,3.508,3.508,0,0,0-1.292,1.393,4.57,4.57,0,0,0,.007,4.011,3.524,3.524,0,0,0,1.307,1.4,3.6,3.6,0,0,0,1.885.5,3.077,3.077,0,0,0,1.466-.359,3.3,3.3,0,0,0,.634-.443v.037a2.1,2.1,0,0,1-.493,1.451,1.562,1.562,0,0,1-1.244.547H244.7a.722.722,0,1,0,0,1.444h2.37a3.26,3.26,0,0,0,1.695-.446,3.081,3.081,0,0,0,1.163-1.233,3.751,3.751,0,0,0,.408-1.762V31.534h-1.531v.575Zm-.278,1.806a3.142,3.142,0,0,1,0,2.584,2.076,2.076,0,0,1-.753.865,2,2,0,0,1-1.1.306,1.914,1.914,0,0,1-1.074-.305,2.081,2.081,0,0,1-.747-.867,2.949,2.949,0,0,1-.278-1.305,2.882,2.882,0,0,1,.277-1.283,2.1,2.1,0,0,1,.748-.86,1.909,1.909,0,0,1,1.074-.305,1.974,1.974,0,0,1,1.1.306,2.052,2.052,0,0,1,.753.863Z" transform="translate(-215.695 -27.832)" fill="#004182"/>
        <path id="Path_172" data-name="Path 172" d="M361.26,36.547a2.257,2.257,0,0,1-.825.813,2.64,2.64,0,0,1-1.312.292A1.833,1.833,0,0,1,357.629,37a2.63,2.63,0,0,1-.592-1.343h5.546l.023-.245c.01-.107.016-.258.016-.448a3.874,3.874,0,0,0-.455-1.867,3.48,3.48,0,0,0-1.26-1.331h0a3.412,3.412,0,0,0-1.8-.491,3.554,3.554,0,0,0-1.879.505,3.485,3.485,0,0,0-1.292,1.4,4.3,4.3,0,0,0-.459,2,4.258,4.258,0,0,0,.467,2,3.524,3.524,0,0,0,1.307,1.4,3.626,3.626,0,0,0,1.9.5,4.1,4.1,0,0,0,1.991-.463,3.687,3.687,0,0,0,1.364-1.277l.142-.224-1.242-.828Zm-4.123-2.241a2.435,2.435,0,0,1,.614-1.057,1.821,1.821,0,0,1,1.357-.524,1.891,1.891,0,0,1,1.356.458,2.13,2.13,0,0,1,.575,1.123Z" transform="translate(-315.473 -27.815)" fill="#004182"/>
        <path id="Path_173" data-name="Path 173" d="M427.808,36.546a2.256,2.256,0,0,1-.825.813,2.64,2.64,0,0,1-1.312.292A1.83,1.83,0,0,1,424.177,37a2.629,2.629,0,0,1-.592-1.343h5.545l.025-.244c.011-.108.016-.254.016-.449a3.874,3.874,0,0,0-.455-1.867,3.474,3.474,0,0,0-1.263-1.331h0a3.412,3.412,0,0,0-1.8-.491,3.553,3.553,0,0,0-1.879.505,3.485,3.485,0,0,0-1.292,1.4,4.3,4.3,0,0,0-.459,2,4.258,4.258,0,0,0,.467,2,3.524,3.524,0,0,0,1.307,1.4,3.626,3.626,0,0,0,1.9.5,4.108,4.108,0,0,0,1.992-.463,3.7,3.7,0,0,0,1.364-1.277l.142-.224-1.243-.828Zm-4.125-2.241a2.43,2.43,0,0,1,.614-1.057,1.822,1.822,0,0,1,1.357-.524,1.889,1.889,0,0,1,1.356.458,2.121,2.121,0,0,1,.575,1.123Z" transform="translate(-374.531 -27.814)" fill="#004182"/>
        <path id="Path_174" data-name="Path 174" d="M492.863,35.092a3.8,3.8,0,0,0-2.075-.693,2.857,2.857,0,0,1-1.344-.338.641.641,0,0,1-.313-.555.63.63,0,0,1,.284-.563,1.778,1.778,0,0,1,1-.228,2.142,2.142,0,0,1,1.077.238,1.474,1.474,0,0,1,.608.73l.112.264,1.38-.679-.109-.24a3,3,0,0,0-3-1.759,3.282,3.282,0,0,0-2.04.58,2.009,2.009,0,0,0-.79,1.684,1.946,1.946,0,0,0,.7,1.56,3.778,3.778,0,0,0,2.151.689,2.607,2.607,0,0,1,1.267.327.765.765,0,0,1,.288.668.649.649,0,0,1-.356.621,2.283,2.283,0,0,1-1.119.242,1.834,1.834,0,0,1-1.862-.993l-.117-.251-1.38.68.125.244a3.069,3.069,0,0,0,1.25,1.305,3.765,3.765,0,0,0,1.87.457,4.255,4.255,0,0,0,1.507-.264A2.683,2.683,0,0,0,493.145,38a2.077,2.077,0,0,0,.453-1.34,1.952,1.952,0,0,0-.735-1.569Z" transform="translate(-432.398 -27.806)" fill="#004182"/>
        <path id="Path_175" data-name="Path 175" d="M320.894,31.937a1.99,1.99,0,0,0-.72,1.066l-.389-.184a1.285,1.285,0,0,0-.551-.119,1.823,1.823,0,0,0-1.016.305,2.232,2.232,0,0,0-.769.9,3.252,3.252,0,0,0-.3,1.445v3.527h-1.53V31.531h1.531v.754a3.209,3.209,0,0,1,.568-.514,2.6,2.6,0,0,1,1.516-.472,2.457,2.457,0,0,1,.751.116l.157.05h0l.029.014a3.123,3.123,0,0,1,.722.458Z" transform="translate(-280.101 -27.832)" fill="#004182"/>
      </g>
    </g>
  </g>
</svg>
